<?xml version="1.0" encoding="UTF-8" standalone="no"?>
<!-- Created with Inkscape (http://www.inkscape.org/) -->

<svg
   width="297mm"
   height="210mm"
   viewBox="0 0 297 210"
   version="1.1"
   id="svg1"
   inkscape:version="1.4.3 (1:1.4.3+202512261035+0d15f75042)"
   sodipodi:docname="Spin.svg"
   xml:space="preserve"
   xmlns:inkscape="http://www.inkscape.org/namespaces/inkscape"
   xmlns:sodipodi="http://sodipodi.sourceforge.net/DTD/sodipodi-0.dtd"
   xmlns="http://www.w3.org/2000/svg"
   xmlns:svg="http://www.w3.org/2000/svg"><sodipodi:namedview
     id="namedview1"
     pagecolor="#ffffff"
     bordercolor="#000000"
     borderopacity="0.25"
     inkscape:showpageshadow="2"
     inkscape:pageopacity="0.0"
     inkscape:pagecheckerboard="0"
     inkscape:deskcolor="#d1d1d1"
     inkscape:document-units="mm"
     inkscape:zoom="1.2674155"
     inkscape:cx="517.58875"
     inkscape:cy="382.66851"
     inkscape:window-width="2494"
     inkscape:window-height="1371"
     inkscape:window-x="66"
     inkscape:window-y="32"
     inkscape:window-maximized="1"
     inkscape:current-layer="layer1" /><defs
     id="defs1"><marker
       style="overflow:visible"
       id="marker38"
       refX="0"
       refY="0"
       orient="auto-start-reverse"
       inkscape:stockid="Triangle arrow"
       markerWidth="1"
       markerHeight="1"
       viewBox="0 0 1 1"
       inkscape:isstock="true"
       inkscape:collect="always"
       preserveAspectRatio="xMidYMid"><path
         transform="scale(0.5)"
         style="fill:context-stroke;fill-rule:evenodd;stroke:context-stroke;stroke-width:1pt"
         d="M 5.77,0 -2.88,5 V -5 Z"
         id="path38" /></marker><marker
       style="overflow:visible"
       id="marker30"
       refX="0"
       refY="0"
       orient="auto-start-reverse"
       inkscape:stockid="Triangle arrow"
       markerWidth="1"
       markerHeight="1"
       viewBox="0 0 1 1"
       inkscape:isstock="true"
       inkscape:collect="always"
       preserveAspectRatio="xMidYMid"><path
         transform="scale(0.5)"
         style="fill:context-stroke;fill-rule:evenodd;stroke:context-stroke;stroke-width:1pt"
         d="M 5.77,0 -2.88,5 V -5 Z"
         id="path30" /></marker><marker
       style="overflow:visible"
       id="marker27"
       refX="0"
       refY="0"
       orient="auto-start-reverse"
       inkscape:stockid="Triangle arrow"
       markerWidth="1"
       markerHeight="1"
       viewBox="0 0 1 1"
       inkscape:isstock="true"
       inkscape:collect="always"
       preserveAspectRatio="xMidYMid"><path
         transform="scale(0.5)"
         style="fill:context-stroke;fill-rule:evenodd;stroke:context-stroke;stroke-width:1pt"
         d="M 5.77,0 -2.88,5 V -5 Z"
         id="path27" /></marker><marker
       style="overflow:visible"
       id="marker8"
       refX="0"
       refY="0"
       orient="auto-start-reverse"
       inkscape:stockid="Triangle arrow"
       markerWidth="1"
       markerHeight="1"
       viewBox="0 0 1 1"
       inkscape:isstock="true"
       inkscape:collect="always"
       preserveAspectRatio="xMidYMid"><path
         transform="scale(0.5)"
         style="fill:context-stroke;fill-rule:evenodd;stroke:context-stroke;stroke-width:1pt"
         d="M 5.77,0 -2.88,5 V -5 Z"
         id="path8" /></marker><marker
       style="overflow:visible"
       id="Triangle"
       refX="0"
       refY="0"
       orient="auto-start-reverse"
       inkscape:stockid="Triangle arrow"
       markerWidth="1"
       markerHeight="1"
       viewBox="0 0 1 1"
       inkscape:isstock="true"
       inkscape:collect="always"
       preserveAspectRatio="xMidYMid"><path
         transform="scale(0.5)"
         style="fill:context-stroke;fill-rule:evenodd;stroke:context-stroke;stroke-width:1pt"
         d="M 5.77,0 -2.88,5 V -5 Z"
         id="path135" /></marker></defs><g
     inkscape:label="Layer 1"
     inkscape:groupmode="layer"
     id="layer1"><path
       style="fill:#40c0ff;fill-opacity:1;stroke:#000000;stroke-width:0.313789;stroke-linejoin:bevel;stroke-dasharray:none"
       id="path18"
       sodipodi:type="arc"
       sodipodi:cx="101.15358"
       sodipodi:cy="215.65329"
       sodipodi:rx="45.115475"
       sodipodi:ry="45.115475"
       sodipodi:start="3.1432302"
       sodipodi:end="3.1431901"
       sodipodi:open="true"
       sodipodi:arc-type="arc"
       d="M 56.038166,215.57941 A 45.115475,45.115475 0 0 1 101.22701,170.53787 45.115475,45.115475 0 0 1 146.269,215.72626 45.115475,45.115475 0 0 1 101.08106,260.76871 45.115475,45.115475 0 0 1 56.038163,215.58122"
       transform="rotate(-30)" /><path
       style="fill:#80c000;fill-opacity:1;stroke:#000000;stroke-width:0.499999;stroke-linejoin:bevel;stroke-dasharray:none"
       d="m 215.60611,176.40491 c 0,0 -1.44833,-5.4312 -1.01784,-7.60816 0.4305,-2.17698 -0.28717,-6.34264 -2.49212,-7.2391 -2.20494,-0.89645 -4.4713,1.85836 -8.03317,-1.38836 -3.56186,-3.24673 -5.47415,-2.38373 -5.32882,-4.63711 0.14533,-2.25338 0.42301,-3.86002 0.0819,-4.86834 -0.3411,-1.00833 -2.79575,0.1678 -1.28052,-2.63545 1.51523,-2.80325 0.72865,-5.00069 3.88598,-5.37725 3.15733,-0.37658 1.86384,-0.11188 4.63162,-0.74565 2.76778,-0.63376 4.10973,-1.64959 6.82907,-1.53224 2.71934,0.11737 4.87584,1.76495 7.28204,1.33994 2.40621,-0.42501 1.64759,-2.1565 3.69221,-2.37275 2.04462,-0.21624 3.05296,-0.55736 4.24956,0.6802 1.19662,1.23756 0.11938,3.54688 -0.005,4.58318 -0.12485,1.0363 2.46964,2.18996 1.03082,4.70803 -1.43881,2.51809 -2.6764,3.71469 -2.48811,5.29335 0.18828,1.57867 2.98403,1.41086 0.0709,4.29801 -2.91312,2.88716 -4.14318,5.76682 -4.78244,7.5822 -0.63925,1.8154 -3.14782,8.32585 -3.14782,8.32585"
       id="path19" /><path
       style="fill:#80c000;fill-opacity:1;stroke:#000000;stroke-width:0.499999;stroke-linejoin:bevel;stroke-dasharray:none"
       d="m 196.83012,149.52042 c 0,0 -3.03897,0.79032 -4.28403,0.30389 -1.24505,-0.48643 -2.60847,-1.38663 -4.3055,-1.61212 -1.69703,-0.22548 -10.70307,0.87625 -12.26126,-0.15255 -1.5582,-1.0288 -2.86293,-3.28867 -4.42113,-4.31747 -1.55819,-1.0288 -6.81709,-4.50102 -7.69407,-6.64628 -0.87699,-2.14525 -0.15209,-7.98746 -0.37858,-9.42355 -0.22648,-1.43608 -1.76421,-3.68197 -1.79592,-4.98946 -0.0317,-1.30748 0.92444,-1.73897 -0.13335,-3.77986 -1.05778,-2.04087 -1.17614,-2.45464 -2.7613,-0.81629 -1.58515,1.63834 -4.06777,2.34853 -4.06777,2.34853 l 0.6952,-0.88348 c 0,0 2.01665,-0.68221 2.22166,-1.16215 0.20501,-0.47994 0.48643,-1.24505 0.1733,-1.78742 -0.31314,-0.54238 -0.82105,-1.21334 -0.18829,-1.57867 0.63277,-0.36533 0.93192,-0.0559 1.22733,-0.58807 0.2954,-0.53213 0.67746,-1.95798 1.8004,-2.72684 1.12295,-0.76886 2.32605,-0.98136 2.92435,-0.36258 0.59831,0.61878 0.81728,0.37186 1.69703,0.22549 0.87973,-0.14633 2.40996,0.41651 3.62704,0.43698 1.21709,0.0205 5.28861,-1.48653 5.61573,-0.71119 0.32712,0.77537 -1.91127,3.99612 -1.29899,4.84788 0.6123,0.85175 1.92727,2.50309 2.66441,2.31856 0.73715,-0.18454 4.25981,0.0717 4.62139,-0.13711 0.36158,-0.20876 -0.39704,-1.94025 0.11736,-2.71933 0.51437,-0.77912 0.99334,-3.7072 2.59622,-4.27105 1.60289,-0.56385 7.68183,0.98859 6.96243,2.24763 -0.71984,1.2588 -1.43508,3.3596 -1.01757,4.08276 0.41751,0.72315 1.71476,1.29999 1.10997,2.13127 -0.6048,0.83128 -3.45174,4.04181 -3.3119,6.3716 0.13985,2.3298 1.16216,2.22167 0.45673,3.71369 -0.70543,1.49202 -1.11545,2.4519 -0.75013,3.08467 0.36533,0.63277 2.67465,1.71001 1.96548,2.36051 -0.70918,0.6505 -2.06236,-0.85824 -3.17507,-0.69793 -1.11271,0.16031 -1.50225,-0.0969 -2.89638,0.82854 -1.39414,0.92542 0.3029,1.15092 -0.76786,2.01016 -1.07075,0.85925 -2.368,0.28243 -3.00076,0.64775 -0.63277,0.36534 -0.91419,1.13045 -0.53488,1.99618 0.37932,0.86576 -1.10524,1.84335 0.57134,3.28594 1.67656,1.44257 3.09591,3.27469 4.06604,3.07617 0.97012,-0.19851 0.45472,-2.55253 1.28225,-2.78926 0.82754,-0.23673 3.8815,2.33902 5.80127,3.15908 1.91978,0.82003 4.47606,2.11627 5.3036,1.87955 0.82753,-0.23673 1.54421,0.79583 1.54421,0.79583 z"
       id="path20" /><path
       style="fill:#80c000;fill-opacity:1;stroke:#000000;stroke-width:0.499999;stroke-linejoin:bevel;stroke-dasharray:none"
       d="m 188.13171,91.693158 c 0,0 1.28092,2.810681 2.34519,3.401467 1.06429,0.590792 2.70162,-0.957148 3.71744,0.384791 1.01581,1.341942 3.64751,-0.780089 5.69214,-0.996348 2.04462,-0.216251 1.98607,1.143197 0.59181,2.06885 -1.39413,0.925419 -1.19935,1.05403 -0.40252,2.642925 0.79682,1.588907 2.76128,0.816297 3.85626,-0.418512 1.09498,-1.234811 4.11347,-0.808072 5.4247,0.0017 1.31123,0.809807 0.0812,3.689479 0.55088,4.503019 0.4697,0.81356 5.33055,-0.7876 6.95118,-0.27694 1.62061,0.51066 4.95425,7.74601 7.57771,12.49873 2.62346,4.75272 3.24874,2.70435 5.2589,3.47221 2.01017,0.76786 2.30183,-0.6058 4.30824,-0.67947 2.00643,-0.0737 4.37917,3.61854 4.37917,3.61854 0,0 -4.70628,-11.55187 -10.62301,-17.09853 -5.91673,-5.546665 -14.00477,-10.72764 -20.29654,-12.229567 -6.29178,-1.501928 -10.17177,-1.867085 -13.09296,-1.678692 -2.92121,0.188398 -6.23859,0.785792 -6.23859,0.785792 z"
       id="path21"
       sodipodi:nodetypes="cssscsssssssscsssc" /><path
       style="fill:#80c000;fill-opacity:1;stroke:#000000;stroke-width:0.499999;stroke-linejoin:bevel;stroke-dasharray:none"
       d="m 189.5555,106.23294 c 0,0 -1.91429,-5.40323 -2.37001,-5.9838 -0.45573,-0.580574 -1.15841,-1.380135 -3.95416,-1.21233 -2.79575,0.167805 -5.39673,0.464216 -6.20655,1.77545 -0.8098,1.31123 -0.57307,2.13876 -1.15365,2.59449 -0.58057,0.45572 -1.74172,1.36717 -0.14908,1.41187 1.59265,0.0447 2.59724,-1.13794 4.83664,-1.22559 2.2394,-0.0876 4.34745,2.31106 5.6307,2.6549 1.28327,0.34385 3.36611,-0.015 3.36611,-0.015 z"
       id="path22" /><path
       style="fill:none;stroke:#000000;stroke-width:0.499999;stroke-linejoin:bevel;stroke-dasharray:none;stroke-dashoffset:0;marker-end:url(#marker30)"
       d="m 172.78152,101.34609 c 0,0 10.80933,10.29387 23.4329,9.16919 10.90827,-0.97186 16.44694,-9.68029 16.44694,-9.68029"
       id="path23"
       sodipodi:nodetypes="csc" /><path
       style="fill:#40c0ff;stroke:#000000;stroke-width:0.313789;stroke-linejoin:bevel;stroke-dasharray:none;fill-opacity:1"
       id="path1"
       sodipodi:type="arc"
       sodipodi:cx="136.09569"
       sodipodi:cy="78.677361"
       sodipodi:rx="45.115475"
       sodipodi:ry="45.115475"
       sodipodi:start="3.1432302"
       sodipodi:end="3.1431901"
       sodipodi:open="true"
       sodipodi:arc-type="arc"
       d="M 90.980274,78.603482 A 45.115475,45.115475 0 0 1 136.16911,33.561946 45.115475,45.115475 0 0 1 181.2111,78.750335 45.115475,45.115475 0 0 1 136.02317,123.79278 45.115475,45.115475 0 0 1 90.980271,78.605291"
       transform="rotate(30)" /><path
       style="fill:#80c000;stroke:#000000;stroke-width:0.499999;stroke-linejoin:bevel;stroke-dasharray:none;fill-opacity:1"
       d="m 53.780631,173.76924 c 0,0 3.979389,-3.96989 6.079948,-4.68555 2.100564,-0.71567 5.349293,-3.42002 5.023179,-5.77779 -0.326119,-2.35776 -3.845034,-2.94308 -2.814223,-7.65111 1.030811,-4.70803 -0.672707,-5.93262 1.351442,-6.93345 2.024151,-1.00083 3.554373,-1.56367 4.257059,-2.36324 0.702686,-0.79957 -1.543204,-2.33729 1.642101,-2.42669 3.185297,-0.0894 4.695048,-1.86931 6.599831,0.67673 1.904788,2.54604 1.028805,1.55819 2.961558,3.63828 1.932743,2.08009 3.483446,2.73433 4.741485,5.14803 1.258033,2.4137 0.909431,5.10507 2.480605,6.9764 1.571174,1.87133 2.691375,0.3486 3.900966,2.01117 1.209586,1.66257 2.009168,2.36526 1.535708,4.02033 -0.473447,1.65508 -3.012,1.87682 -3.971889,2.28684 -0.959886,0.41003 -0.661741,3.23375 -3.561863,3.24673 -2.900135,0.013 -4.555218,-0.46048 -5.828234,0.49191 -1.273029,0.95239 0.270176,3.28968 -3.686722,2.21043 -3.956906,-1.07925 -7.065802,-0.70469 -8.957594,-0.35061 -1.891807,0.35409 -8.78431,1.43683 -8.78431,1.43683"
       id="path2" /><path
       style="fill:#80c000;stroke:#000000;stroke-width:0.499999;stroke-linejoin:bevel;stroke-dasharray:none;fill-opacity:1"
       d="m 67.675292,144.06651 c 0,0 -2.203932,-2.23666 -2.405197,-3.55813 -0.201265,-1.32146 -0.103375,-2.95232 -0.756613,-4.53473 -0.65324,-1.58242 -6.11039,-8.83101 -5.998519,-10.69484 0.111875,-1.86384 1.416615,-4.12371 1.528485,-5.98755 0.11187,-1.86383 0.489449,-8.15428 1.908804,-9.9864 1.419354,-1.83212 6.841306,-4.12544 7.971746,-5.03963 1.130441,-0.91418 2.30658,-3.36884 3.423034,-4.05004 1.116454,-0.681211 1.968215,-0.0689 3.206779,-2.005419 1.238566,-1.936498 1.537715,-2.245883 -0.673714,-2.799499 -2.211427,-0.553613 -4.067772,-2.348529 -4.067772,-2.348529 l 1.112706,0.160322 c 0,0 1.599143,1.405365 2.117291,1.342935 0.518146,-0.06242 1.321466,-0.201261 1.634601,-0.743627 0.31314,-0.542374 0.640261,-1.31772 1.273024,-0.952394 0.632766,0.365327 0.514405,0.77909 1.122945,0.76886 0.608545,-0.01024 2.034388,-0.392293 3.261713,0.195775 1.227325,0.588069 2.012908,1.523736 1.776184,2.351273 -0.236726,0.827536 0.08664,0.893717 0.653238,1.582412 0.56659,0.688704 0.844265,2.295341 1.435078,3.359601 0.59081,1.06427 3.931678,3.8368 3.423766,4.50777 -0.507914,0.67098 -4.416371,0.34285 -4.847872,1.29898 -0.431499,0.95614 -1.204104,2.92061 -0.675721,3.46673 0.528386,0.54612 2.067844,3.72492 2.429423,3.93368 0.361581,0.20876 1.481779,-1.31397 2.413694,-1.25803 0.931919,0.0559 3.7072,-0.99334 4.996954,0.11287 1.289747,1.10622 2.984766,7.14696 1.534705,7.15346 -1.450065,0.006 -3.627043,0.43698 -4.044558,1.16014 -0.417515,0.72315 -0.26844,2.13502 -1.290754,2.02689 -1.022309,-0.10813 -5.226176,-0.96838 -7.173917,0.31762 -1.947745,1.28601 -1.342944,2.11729 -2.987784,2.25238 -1.644845,0.13509 -2.68114,0.25994 -3.046465,0.8927 -0.36533,0.63277 -0.143591,3.17132 -1.061524,2.88241 -0.917934,-0.28891 -0.287915,-2.21517 -0.983103,-3.09865 -0.695191,-0.88348 -0.667219,-1.34944 -2.165733,-2.09407 -1.498505,-0.74465 -0.84527,0.83778 -2.12478,0.34009 -1.279514,-0.49767 -1.428589,-1.90953 -2.061353,-2.27486 -0.632765,-0.36532 -1.436084,-0.22648 -1.996183,0.53488 -0.560101,0.76137 -2.149005,-0.0355 -2.560029,2.13776 -0.411027,2.17323 -1.288012,4.31848 -0.631027,5.05938 0.656985,0.74089 2.437918,-0.88247 3.056703,-0.28417 0.61878,0.59831 -0.08491,4.53099 0.164792,6.60359 0.249711,2.07259 0.405274,4.93451 1.024054,5.53282 0.618785,0.5983 0.0829,1.73524 0.0829,1.73524 z"
       id="path3" /><path
       style="fill:#80c000;fill-opacity:1;stroke:#000000;stroke-width:0.499999;stroke-linejoin:bevel;stroke-dasharray:none"
       d="m 113.40596,107.61984 c 0,0 -1.79366,2.51465 -1.77316,3.73173 0.0205,1.21709 2.17972,1.86109 1.52548,3.41179 -0.65425,1.55069 2.49933,2.76879 3.70893,4.43136 1.20959,1.66257 0.003,2.29159 -1.49577,1.54695 -1.4985,-0.74464 -1.51249,-0.51165 -2.4901,0.97287 -0.97762,1.48452 0.67371,2.79949 2.29057,3.13036 1.61687,0.33088 2.75655,3.15834 2.71085,4.6988 -0.0457,1.54046 -3.15459,1.91503 -3.62429,2.72858 -0.46971,0.81355 3.34736,4.2226 3.71543,5.88143 0.36806,1.65882 -4.23111,8.16351 -7.03536,12.81185 -2.80425,4.64835 -0.71767,4.16567 -0.37757,6.29045 0.3401,2.12479 1.67555,1.69054 2.74256,3.39131 1.06701,1.70078 -0.94417,5.60174 -0.94417,5.60174 0,0 7.65108,-9.85169 9.49626,-17.74906 1.84518,-7.89737 2.28802,-17.4923 0.44284,-23.6921 -1.84518,-6.1998 -3.46894,-9.74255 -5.09269,-12.17818 -1.62376,-2.43564 -3.79981,-5.00988 -3.79981,-5.00988 z"
       id="path4"
       sodipodi:nodetypes="cssscsssssssscsssc" /><path
       style="fill:#80c000;stroke:#000000;stroke-width:0.499999;stroke-linejoin:bevel;stroke-dasharray:none;fill-opacity:1"
       d="m 101.52603,116.12277 c 0,0 3.72219,-4.35944 3.99712,-5.04439 0.27493,-0.68496 0.61603,-1.69328 -0.92717,-4.03057 -1.5432,-2.33729 -3.10039,-4.4416 -4.640852,-4.4873 -1.540465,-0.0457 -2.138768,0.57308 -2.823724,0.29815 -0.684953,-0.27493 -2.054862,-0.82479 -1.297245,0.57683 0.75762,1.40162 2.284094,1.6803 3.479708,3.57585 1.195603,1.89556 0.172287,4.92054 0.516135,6.20379 0.343848,1.28326 1.696028,2.90764 1.696028,2.90764 z"
       id="path5" /><path
       style="fill:none;stroke:#000000;stroke-width:0.499999;stroke-linejoin:bevel;stroke-dasharray:none;marker-end:url(#Triangle)"
       d="M 97.612358,98.480761 113.79111,71.498106"
       id="path6"
       sodipodi:nodetypes="cc" /><path
       style="fill:none;stroke:#000000;stroke-width:0.499999;stroke-linejoin:bevel;stroke-dasharray:none;marker-end:url(#marker8)"
       id="path7"
       sodipodi:type="arc"
       sodipodi:cx="134.08629"
       sodipodi:cy="17.549099"
       sodipodi:rx="13.778039"
       sodipodi:ry="6.053987"
       sodipodi:start="3.1432302"
       sodipodi:end="2.6261165"
       sodipodi:open="true"
       sodipodi:arc-type="arc"
       d="m 120.30827,17.539185 a 13.778039,6.053987 0 0 1 12.02415,-5.994824 13.778039,6.053987 0 0 1 15.07968,4.466407 13.778039,6.053987 0 0 1 -8.13605,7.146429 13.778039,6.053987 0 0 1 -17.17746,-2.62379"
       transform="rotate(30)" /><path
       style="fill:none;stroke:#000000;stroke-width:0.5;stroke-linejoin:bevel;stroke-dasharray:none;marker-end:url(#marker8)"
       id="path24"
       sodipodi:type="arc"
       sodipodi:cx="74.856987"
       sodipodi:cy="59.143574"
       sodipodi:rx="50.156792"
       sodipodi:ry="13.692895"
       sodipodi:start="3.1432302"
       sodipodi:end="2.6261165"
       sodipodi:open="true"
       sodipodi:arc-type="arc"
       d="M 24.700263,59.121151 A 50.156792,13.692895 0 0 1 68.4723,45.562071 50.156792,13.692895 0 0 1 123.3675,55.664179 50.156792,13.692895 0 0 1 93.749492,71.827959 50.156792,13.692895 0 0 1 31.217664,65.893475" /><path
       style="fill:none;stroke:#000000;stroke-width:0.499999;stroke-linejoin:bevel;stroke-dasharray:none;stroke-dashoffset:0;marker-end:url(#marker27)"
       d="m 74.735422,58.661043 c 0,-34.236338 0,-34.236338 0,-34.236338"
       id="path26" /><text
       xml:space="preserve"
       style="font-size:2.80733px;line-height:normal;font-family:'DejaVu Sans Mono';-inkscape-font-specification:'DejaVu Sans Mono';text-decoration-color:#000000;writing-mode:lr-tb;direction:ltr;text-anchor:middle;fill:#000000;fill-opacity:1;stroke:none;stroke-width:0.499999;stroke-linejoin:bevel;stroke-dasharray:none;stroke-dashoffset:0;stroke-opacity:1"
       x="144.03955"
       y="69.364502"
       id="text28"><tspan
         sodipodi:role="line"
         style="fill:#000000;fill-opacity:1;stroke:none;stroke-width:0.5;stroke-opacity:1"
         x="144.03955"
         y="69.364502"
         id="tspan31">north_pole_in_global_coordinates</tspan></text><path
       style="fill:none;stroke:#000000;stroke-width:0.499999;stroke-linejoin:bevel;stroke-dasharray:none;stroke-dashoffset:0;marker-end:url(#marker30)"
       d="m 97.371189,99.152651 c 0,0 -4.182597,15.014759 3.775691,24.878079 6.85863,8.50043 17.39892,9.49271 17.39892,9.49271"
       id="path29"
       sodipodi:nodetypes="csc" /><text
       xml:space="preserve"
       style="font-size:2.80733px;line-height:normal;font-family:'DejaVu Sans Mono';-inkscape-font-specification:'DejaVu Sans Mono';text-decoration-color:#000000;writing-mode:lr-tb;direction:ltr;text-anchor:middle;fill:#000000;fill-opacity:1;stroke:none;stroke-width:0.499999;stroke-linejoin:bevel;stroke-dasharray:none;stroke-dashoffset:0;stroke-opacity:1"
       x="128.96849"
       y="97.145981"
       id="text33"><tspan
         sodipodi:role="line"
         style="fill:#000000;fill-opacity:1;stroke:none;stroke-width:0.5;stroke-opacity:1"
         x="128.96849"
         y="97.145981"
         id="tspan33">north_pole_in_local_coordinates</tspan></text><text
       xml:space="preserve"
       style="font-size:2.80733px;line-height:normal;font-family:'DejaVu Sans Mono';-inkscape-font-specification:'DejaVu Sans Mono';text-decoration-color:#000000;writing-mode:lr-tb;direction:ltr;text-anchor:middle;fill:#000000;fill-opacity:1;stroke:none;stroke-width:0.499999;stroke-linejoin:bevel;stroke-dasharray:none;stroke-dashoffset:0;stroke-opacity:1"
       x="93.270851"
       y="133.26114"
       id="text34"><tspan
         sodipodi:role="line"
         style="fill:#000000;fill-opacity:1;stroke:none;stroke-width:0.5;stroke-opacity:1"
         x="93.270851"
         y="133.26114"
         id="tspan34">true polar wander</tspan></text><text
       xml:space="preserve"
       style="font-size:2.80733px;line-height:normal;font-family:'DejaVu Sans Mono';-inkscape-font-specification:'DejaVu Sans Mono';text-decoration-color:#000000;writing-mode:lr-tb;direction:ltr;text-anchor:middle;fill:#000000;fill-opacity:1;stroke:none;stroke-width:0.499999;stroke-linejoin:bevel;stroke-dasharray:none;stroke-dashoffset:0;stroke-opacity:1"
       x="123.74954"
       y="89.004425"
       id="text35"><tspan
         sodipodi:role="line"
         style="fill:#000000;fill-opacity:1;stroke:none;stroke-width:0.5;stroke-opacity:1"
         x="123.74954"
         y="89.004425"
         id="tspan35">spin</tspan></text><text
       xml:space="preserve"
       style="font-size:2.80733px;line-height:normal;font-family:'DejaVu Sans Mono';-inkscape-font-specification:'DejaVu Sans Mono';text-decoration-color:#000000;writing-mode:lr-tb;direction:ltr;text-anchor:middle;fill:#000000;fill-opacity:1;stroke:none;stroke-width:0.499999;stroke-linejoin:bevel;stroke-dasharray:none;stroke-dashoffset:0;stroke-opacity:1"
       x="109.13647"
       y="22.201813"
       id="text36"><tspan
         sodipodi:role="line"
         style="fill:#000000;fill-opacity:1;stroke:none;stroke-width:0.5;stroke-opacity:1"
         x="109.13647"
         y="22.201813"
         id="tspan36">precessional_north_pole_in_global_space</tspan></text><text
       xml:space="preserve"
       style="font-size:2.80733px;line-height:normal;font-family:'DejaVu Sans Mono';-inkscape-font-specification:'DejaVu Sans Mono';text-decoration-color:#000000;writing-mode:lr-tb;direction:ltr;text-anchor:middle;fill:#000000;fill-opacity:1;stroke:none;stroke-width:0.499999;stroke-linejoin:bevel;stroke-dasharray:none;stroke-dashoffset:0;stroke-opacity:1"
       x="19.456926"
       y="65.965042"
       id="text37"><tspan
         sodipodi:role="line"
         style="fill:#000000;fill-opacity:1;stroke:none;stroke-width:0.5;stroke-opacity:1"
         x="19.456926"
         y="65.965042"
         id="tspan37">precession</tspan></text><path
       style="fill:none;fill-opacity:1;stroke:#000000;stroke-width:0.5;stroke-linejoin:bevel;stroke-dasharray:none;stroke-dashoffset:0;stroke-opacity:1;marker-end:url(#marker38)"
       d="m 24.946819,59.340953 c 0,0 6.347415,-0.442841 3.247514,-1.476142 -3.0999,-1.033301 -6.019852,-1.434296 -4.576043,-2.583251 1.437737,-1.144123 8.783052,2.657057 6.716453,-1.033299 -2.066603,-3.690358 -2.01932,-7.432561 2.214214,-4.20701 3.0999,2.36183 5.937853,3.10925 8.2664,-1e-6 2.288374,-3.055609 3.173709,-5.166499 4.945079,-4.428428 1.771372,0.738071 3.0999,5.609344 7.233102,3.247514 4.133202,-2.361827 4.207009,-7.380714 7.749753,-4.428428 3.542742,2.952287 3.616551,6.568836 9.078278,2.730865 5.461731,-3.837972 6.642644,-5.904571 10.111582,-3.026093 3.624482,3.007545 5.756957,7.233101 10.037772,3.247516 4.280816,-3.985588 8.487828,-4.354622 10.332997,-2.435638 2.95292,3.07105 4.1332,7.233102 8.41403,6.052187 6.62722,-1.828198 9.81634,-4.649852 11.14487,-0.664264 1.32853,3.985586 -1.18091,6.495029 3.0999,7.2331 4.28082,0.738074 7.2331,2.361829 3.98559,4.576045 -3.24752,2.214213 -7.82356,-1.033301 -10.77585,1.623756 -2.95228,2.65706 -4.57604,9.742546 -8.2664,8.266404 -3.69036,-1.476145 -9.447314,-7.52833 -11.513913,-4.133202 -2.066602,3.395128 -5.75696,10.62823 -9.447316,8.414014 -3.690358,-2.214213 -9.152088,-9.447315 -11.809145,-6.642642 -2.657059,2.804671 -8.118787,9.742543 -11.809145,6.642642 -3.690358,-3.0999 -7.52833,-10.775844 -11.513918,-8.414014 -3.985585,2.361829 -7.971173,8.856858 -10.185386,6.199801 -2.214216,-2.657057 1.136578,-10.332554 -2.509444,-8.561631 -2.583252,1.254721 -4.354623,5.018888 -4.354623,5.018888"
       id="path37"
       sodipodi:nodetypes="csssssssssssssssssssssssssc" /><text
       xml:space="preserve"
       style="font-size:2.80733px;line-height:normal;font-family:'DejaVu Sans Mono';-inkscape-font-specification:'DejaVu Sans Mono';text-decoration-color:#000000;writing-mode:lr-tb;direction:ltr;text-anchor:middle;fill:#000000;fill-opacity:1;stroke:none;stroke-width:0.499999;stroke-linejoin:bevel;stroke-dasharray:none;stroke-dashoffset:0;stroke-opacity:1"
       x="60.567513"
       y="66.186462"
       id="text38"><tspan
         sodipodi:role="line"
         style="fill:#000000;fill-opacity:1;stroke:none;stroke-width:0.5;stroke-opacity:1"
         x="60.567513"
         y="66.186462"
         id="tspan38">nutation</tspan></text><path
       style="fill:none;stroke:#000000;stroke-width:0.419326;stroke-linejoin:bevel;stroke-dasharray:none;marker-end:url(#Triangle)"
       d="M 157.24307,35.316528 170.81143,12.687455"
       id="path39"
       sodipodi:nodetypes="cc" /><path
       style="fill:none;stroke:#000000;stroke-width:0.419326;stroke-linejoin:bevel;stroke-dasharray:none;stroke-dashoffset:0;marker-end:url(#marker27)"
       d="m 156.99824,35.346845 c 0,-28.7123903 0,-28.7123903 0,-28.7123903"
       id="path40" /><path
       style="fill:none;stroke:#000000;stroke-width:0.419326;stroke-linejoin:bevel;stroke-dasharray:none;marker-end:url(#Triangle)"
       d="m 157.24307,35.316528 -10.2007,12.034129"
       id="path41"
       sodipodi:nodetypes="cc" /><text
       xml:space="preserve"
       style="font-size:2.80733px;line-height:normal;font-family:'DejaVu Sans Mono';-inkscape-font-specification:'DejaVu Sans Mono';text-decoration-color:#000000;writing-mode:lr-tb;direction:ltr;fill:#000000;fill-opacity:1;stroke:none;stroke-width:0.5;stroke-linejoin:bevel;stroke-dasharray:none;stroke-dashoffset:0;stroke-opacity:1"
       x="166.25092"
       y="25.247026"
       id="text41"><tspan
         sodipodi:role="line"
         style="font-size:2.80733px;line-height:normal;font-family:'DejaVu Sans Mono';-inkscape-font-specification:'DejaVu Sans Mono';text-decoration-color:#000000;writing-mode:lr-tb;direction:ltr;fill:#000000;fill-opacity:1;stroke:none;stroke-width:0.5;stroke-linejoin:bevel;stroke-dasharray:none;stroke-dashoffset:0;stroke-opacity:1"
         x="166.25092"
         y="25.247026"
         id="tspan41">S = spin axis</tspan></text><text
       xml:space="preserve"
       style="font-size:2.80733px;line-height:normal;font-family:'DejaVu Sans Mono';-inkscape-font-specification:'DejaVu Sans Mono';text-decoration-color:#000000;writing-mode:lr-tb;direction:ltr;fill:#000000;fill-opacity:1;stroke:none;stroke-width:0.5;stroke-linejoin:bevel;stroke-dasharray:none;stroke-dashoffset:0;stroke-opacity:1"
       x="158.59096"
       y="9.3891783"
       id="text42"><tspan
         sodipodi:role="line"
         style="font-size:2.80733px;line-height:normal;font-family:'DejaVu Sans Mono';-inkscape-font-specification:'DejaVu Sans Mono';text-decoration-color:#000000;writing-mode:lr-tb;direction:ltr;fill:#000000;fill-opacity:1;stroke:none;stroke-width:0.5;stroke-linejoin:bevel;stroke-dasharray:none;stroke-dashoffset:0;stroke-opacity:1"
         x="158.59096"
         y="9.3891783"
         id="tspan42">P = precession axis</tspan></text><text
       xml:space="preserve"
       style="font-size:2.80733px;line-height:normal;font-family:'DejaVu Sans Mono';-inkscape-font-specification:'DejaVu Sans Mono';text-decoration-color:#000000;writing-mode:lr-tb;direction:ltr;fill:#000000;fill-opacity:1;stroke:none;stroke-width:0.5;stroke-linejoin:bevel;stroke-dasharray:none;stroke-dashoffset:0;stroke-opacity:1"
       x="153.50787"
       y="44.129143"
       id="text43"><tspan
         sodipodi:role="line"
         style="font-size:2.80733px;line-height:normal;font-family:'DejaVu Sans Mono';-inkscape-font-specification:'DejaVu Sans Mono';text-decoration-color:#000000;writing-mode:lr-tb;direction:ltr;fill:#000000;fill-opacity:1;stroke:none;stroke-width:0.5;stroke-linejoin:bevel;stroke-dasharray:none;stroke-dashoffset:0;stroke-opacity:1"
         x="153.50787"
         y="44.129143"
         id="tspan43">nutation axis = ⟨S×P⟩</tspan></text><path
       style="fill:none;fill-opacity:1;stroke:#000000;stroke-width:0.251596;stroke-linejoin:bevel;stroke-dasharray:none;stroke-dashoffset:0;stroke-opacity:1"
       d="m 155.22638,37.683608 v -3.063825 l 1.75077,-2.013362"
       id="path43" /><path
       style="fill:none;fill-opacity:1;stroke:#000000;stroke-width:0.251596;stroke-linejoin:bevel;stroke-dasharray:none;stroke-dashoffset:0;stroke-opacity:1"
       d="m 155.36196,37.451821 0.37139,-1.201068 2.33466,-2.706055 -0.41581,0.997887"
       id="path44"
       sodipodi:nodetypes="cccc" /><path
       style="fill:none;stroke:#000000;stroke-width:0.499999;stroke-linejoin:bevel;stroke-dasharray:none;marker-end:url(#Triangle)"
       d="M 214.51693,98.480761 230.69568,71.498106"
       id="path14"
       sodipodi:nodetypes="cc" /><path
       style="fill:none;stroke:#000000;stroke-width:0.499999;stroke-linejoin:bevel;stroke-dasharray:none;marker-end:url(#marker8)"
       id="path15"
       sodipodi:type="arc"
       sodipodi:cx="235.32861"
       sodipodi:cy="-40.903187"
       sodipodi:rx="13.778039"
       sodipodi:ry="6.053987"
       sodipodi:start="3.1432302"
       sodipodi:end="2.6261165"
       sodipodi:open="true"
       sodipodi:arc-type="arc"
       d="m 221.55059,-40.9131 a 13.778039,6.053987 0 0 1 12.02415,-5.994824 13.778039,6.053987 0 0 1 15.07968,4.466406 13.778039,6.053987 0 0 1 -8.13605,7.14643 13.778039,6.053987 0 0 1 -17.17745,-2.623791"
       transform="rotate(30)" /><text
       xml:space="preserve"
       style="font-size:2.80733px;line-height:normal;font-family:'DejaVu Sans Mono';-inkscape-font-specification:'DejaVu Sans Mono';text-decoration-color:#000000;writing-mode:lr-tb;direction:ltr;text-anchor:middle;fill:#000000;fill-opacity:1;stroke:none;stroke-width:0.499999;stroke-linejoin:bevel;stroke-dasharray:none;stroke-dashoffset:0;stroke-opacity:1"
       x="240.65411"
       y="89.004425"
       id="text17"><tspan
         sodipodi:role="line"
         style="fill:#000000;fill-opacity:1;stroke:none;stroke-width:0.5;stroke-opacity:1"
         x="240.65411"
         y="89.004425"
         id="tspan17">spin</tspan></text><path
       style="fill:#40c0ff;stroke:#000000;stroke-width:0.5;stroke-linejoin:bevel;stroke-dasharray:none;marker-end:url(#marker38)"
       d="m 128.59502,161.16131 h 18.37072"
       id="path17" /><text
       xml:space="preserve"
       style="font-size:2.80733px;line-height:normal;font-family:'DejaVu Sans Mono';-inkscape-font-specification:'DejaVu Sans Mono';text-decoration-color:#000000;writing-mode:lr-tb;direction:ltr;text-anchor:middle;fill:#000000;fill-opacity:1;stroke:none;stroke-width:0.499999;stroke-linejoin:bevel;stroke-dasharray:none;stroke-dashoffset:0;stroke-opacity:1"
       x="139.19765"
       y="165.82741"
       id="text18"><tspan
         sodipodi:role="line"
         style="fill:#000000;fill-opacity:1;stroke:none;stroke-width:0.5;stroke-opacity:1"
         x="139.19765"
         y="165.82741"
         id="tspan18">true polar wander</tspan></text></g></svg>
