<?xml version="1.0" encoding="UTF-8" standalone="no"?>
<!-- Created with Inkscape (http://www.inkscape.org/) -->

<svg
   width="297mm"
   height="210mm"
   viewBox="0 0 297 210"
   version="1.1"
   id="svg1"
   inkscape:version="1.4.3 (1:1.4.3+202512261035+0d15f75042)"
   sodipodi:docname="Spin.svg"
   xml:space="preserve"
   xmlns:inkscape="http://www.inkscape.org/namespaces/inkscape"
   xmlns:sodipodi="http://sodipodi.sourceforge.net/DTD/sodipodi-0.dtd"
   xmlns="http://www.w3.org/2000/svg"
   xmlns:svg="http://www.w3.org/2000/svg"><sodipodi:namedview
     id="namedview1"
     pagecolor="#ffffff"
     bordercolor="#000000"
     borderopacity="0.25"
     inkscape:showpageshadow="2"
     inkscape:pageopacity="0.0"
     inkscape:pagecheckerboard="0"
     inkscape:deskcolor="#d1d1d1"
     inkscape:document-units="mm"
     inkscape:zoom="1.2674155"
     inkscape:cx="458.0187"
     inkscape:cy="321.12595"
     inkscape:window-width="2494"
     inkscape:window-height="1371"
     inkscape:window-x="66"
     inkscape:window-y="32"
     inkscape:window-maximized="1"
     inkscape:current-layer="layer1" /><defs
     id="defs1"><marker
       style="overflow:visible"
       id="marker38"
       refX="0"
       refY="0"
       orient="auto-start-reverse"
       inkscape:stockid="Triangle arrow"
       markerWidth="1"
       markerHeight="1"
       viewBox="0 0 1 1"
       inkscape:isstock="true"
       inkscape:collect="always"
       preserveAspectRatio="xMidYMid"><path
         transform="scale(0.5)"
         style="fill:context-stroke;fill-rule:evenodd;stroke:context-stroke;stroke-width:1pt"
         d="M 5.77,0 -2.88,5 V -5 Z"
         id="path38" /></marker><marker
       style="overflow:visible"
       id="marker30"
       refX="0"
       refY="0"
       orient="auto-start-reverse"
       inkscape:stockid="Triangle arrow"
       markerWidth="1"
       markerHeight="1"
       viewBox="0 0 1 1"
       inkscape:isstock="true"
       inkscape:collect="always"
       preserveAspectRatio="xMidYMid"><path
         transform="scale(0.5)"
         style="fill:context-stroke;fill-rule:evenodd;stroke:context-stroke;stroke-width:1pt"
         d="M 5.77,0 -2.88,5 V -5 Z"
         id="path30" /></marker><marker
       style="overflow:visible"
       id="marker27"
       refX="0"
       refY="0"
       orient="auto-start-reverse"
       inkscape:stockid="Triangle arrow"
       markerWidth="1"
       markerHeight="1"
       viewBox="0 0 1 1"
       inkscape:isstock="true"
       inkscape:collect="always"
       preserveAspectRatio="xMidYMid"><path
         transform="scale(0.5)"
         style="fill:context-stroke;fill-rule:evenodd;stroke:context-stroke;stroke-width:1pt"
         d="M 5.77,0 -2.88,5 V -5 Z"
         id="path27" /></marker><marker
       style="overflow:visible"
       id="marker8"
       refX="0"
       refY="0"
       orient="auto-start-reverse"
       inkscape:stockid="Triangle arrow"
       markerWidth="1"
       markerHeight="1"
       viewBox="0 0 1 1"
       inkscape:isstock="true"
       inkscape:collect="always"
       preserveAspectRatio="xMidYMid"><path
         transform="scale(0.5)"
         style="fill:context-stroke;fill-rule:evenodd;stroke:context-stroke;stroke-width:1pt"
         d="M 5.77,0 -2.88,5 V -5 Z"
         id="path8" /></marker><marker
       style="overflow:visible"
       id="Triangle"
       refX="0"
       refY="0"
       orient="auto-start-reverse"
       inkscape:stockid="Triangle arrow"
       markerWidth="1"
       markerHeight="1"
       viewBox="0 0 1 1"
       inkscape:isstock="true"
       inkscape:collect="always"
       preserveAspectRatio="xMidYMid"><path
         transform="scale(0.5)"
         style="fill:context-stroke;fill-rule:evenodd;stroke:context-stroke;stroke-width:1pt"
         d="M 5.77,0 -2.88,5 V -5 Z"
         id="path135" /></marker></defs><g
     inkscape:label="Layer 1"
     inkscape:groupmode="layer"
     id="layer1"><path
       style="fill:#40c0ff;stroke:#000000;stroke-width:0.313789;stroke-linejoin:bevel;stroke-dasharray:none;fill-opacity:1"
       id="path1"
       sodipodi:type="arc"
       sodipodi:cx="136.09569"
       sodipodi:cy="78.677361"
       sodipodi:rx="45.115475"
       sodipodi:ry="45.115475"
       sodipodi:start="3.1432302"
       sodipodi:end="3.1431901"
       sodipodi:open="true"
       sodipodi:arc-type="arc"
       d="M 90.980274,78.603482 A 45.115475,45.115475 0 0 1 136.16911,33.561946 45.115475,45.115475 0 0 1 181.2111,78.750335 45.115475,45.115475 0 0 1 136.02317,123.79278 45.115475,45.115475 0 0 1 90.980271,78.605291"
       transform="rotate(30)" /><path
       style="fill:#80c000;stroke:#000000;stroke-width:0.499999;stroke-linejoin:bevel;stroke-dasharray:none;fill-opacity:1"
       d="m 53.780631,173.76924 c 0,0 3.979389,-3.96989 6.079948,-4.68555 2.100564,-0.71567 5.349293,-3.42002 5.023179,-5.77779 -0.326119,-2.35776 -3.845034,-2.94308 -2.814223,-7.65111 1.030811,-4.70803 -0.672707,-5.93262 1.351442,-6.93345 2.024151,-1.00083 3.554373,-1.56367 4.257059,-2.36324 0.702686,-0.79957 -1.543204,-2.33729 1.642101,-2.42669 3.185297,-0.0894 4.695048,-1.86931 6.599831,0.67673 1.904788,2.54604 1.028805,1.55819 2.961558,3.63828 1.932743,2.08009 3.483446,2.73433 4.741485,5.14803 1.258033,2.4137 0.909431,5.10507 2.480605,6.9764 1.571174,1.87133 2.691375,0.3486 3.900966,2.01117 1.209586,1.66257 2.009168,2.36526 1.535708,4.02033 -0.473447,1.65508 -3.012,1.87682 -3.971889,2.28684 -0.959886,0.41003 -0.661741,3.23375 -3.561863,3.24673 -2.900135,0.013 -4.555218,-0.46048 -5.828234,0.49191 -1.273029,0.95239 0.270176,3.28968 -3.686722,2.21043 -3.956906,-1.07925 -7.065802,-0.70469 -8.957594,-0.35061 -1.891807,0.35409 -8.78431,1.43683 -8.78431,1.43683"
       id="path2" /><path
       style="fill:#80c000;stroke:#000000;stroke-width:0.499999;stroke-linejoin:bevel;stroke-dasharray:none;fill-opacity:1"
       d="m 67.675292,144.06651 c 0,0 -2.203932,-2.23666 -2.405197,-3.55813 -0.201265,-1.32146 -0.103375,-2.95232 -0.756613,-4.53473 -0.65324,-1.58242 -6.11039,-8.83101 -5.998519,-10.69484 0.111875,-1.86384 1.416615,-4.12371 1.528485,-5.98755 0.11187,-1.86383 0.489449,-8.15428 1.908804,-9.9864 1.419354,-1.83212 6.841306,-4.12544 7.971746,-5.03963 1.130441,-0.91418 2.30658,-3.36884 3.423034,-4.05004 1.116454,-0.681211 1.968215,-0.0689 3.206779,-2.005419 1.238566,-1.936498 1.537715,-2.245883 -0.673714,-2.799499 -2.211427,-0.553613 -4.067772,-2.348529 -4.067772,-2.348529 l 1.112706,0.160322 c 0,0 1.599143,1.405365 2.117291,1.342935 0.518146,-0.06242 1.321466,-0.201261 1.634601,-0.743627 0.31314,-0.542374 0.640261,-1.31772 1.273024,-0.952394 0.632766,0.365327 0.514405,0.77909 1.122945,0.76886 0.608545,-0.01024 2.034388,-0.392293 3.261713,0.195775 1.227325,0.588069 2.012908,1.523736 1.776184,2.351273 -0.236726,0.827536 0.08664,0.893717 0.653238,1.582412 0.56659,0.688704 0.844265,2.295341 1.435078,3.359601 0.59081,1.06427 3.931678,3.8368 3.423766,4.50777 -0.507914,0.67098 -4.416371,0.34285 -4.847872,1.29898 -0.431499,0.95614 -1.204104,2.92061 -0.675721,3.46673 0.528386,0.54612 2.067844,3.72492 2.429423,3.93368 0.361581,0.20876 1.481779,-1.31397 2.413694,-1.25803 0.931919,0.0559 3.7072,-0.99334 4.996954,0.11287 1.289747,1.10622 2.984766,7.14696 1.534705,7.15346 -1.450065,0.006 -3.627043,0.43698 -4.044558,1.16014 -0.417515,0.72315 -0.26844,2.13502 -1.290754,2.02689 -1.022309,-0.10813 -5.226176,-0.96838 -7.173917,0.31762 -1.947745,1.28601 -1.342944,2.11729 -2.987784,2.25238 -1.644845,0.13509 -2.68114,0.25994 -3.046465,0.8927 -0.36533,0.63277 -0.143591,3.17132 -1.061524,2.88241 -0.917934,-0.28891 -0.287915,-2.21517 -0.983103,-3.09865 -0.695191,-0.88348 -0.667219,-1.34944 -2.165733,-2.09407 -1.498505,-0.74465 -0.84527,0.83778 -2.12478,0.34009 -1.279514,-0.49767 -1.428589,-1.90953 -2.061353,-2.27486 -0.632765,-0.36532 -1.436084,-0.22648 -1.996183,0.53488 -0.560101,0.76137 -2.149005,-0.0355 -2.560029,2.13776 -0.411027,2.17323 -1.288012,4.31848 -0.631027,5.05938 0.656985,0.74089 2.437918,-0.88247 3.056703,-0.28417 0.61878,0.59831 -0.08491,4.53099 0.164792,6.60359 0.249711,2.07259 0.405274,4.93451 1.024054,5.53282 0.618785,0.5983 0.0829,1.73524 0.0829,1.73524 z"
       id="path3" /><path
       style="fill:#80c000;fill-opacity:1;stroke:#000000;stroke-width:0.499999;stroke-linejoin:bevel;stroke-dasharray:none"
       d="m 113.40596,107.61984 c 0,0 -1.79366,2.51465 -1.77316,3.73173 0.0205,1.21709 2.17972,1.86109 1.52548,3.41179 -0.65425,1.55069 2.49933,2.76879 3.70893,4.43136 1.20959,1.66257 0.003,2.29159 -1.49577,1.54695 -1.4985,-0.74464 -1.51249,-0.51165 -2.4901,0.97287 -0.97762,1.48452 0.67371,2.79949 2.29057,3.13036 1.61687,0.33088 2.75655,3.15834 2.71085,4.6988 -0.0457,1.54046 -3.15459,1.91503 -3.62429,2.72858 -0.46971,0.81355 3.34736,4.2226 3.71543,5.88143 0.36806,1.65882 -4.23111,8.16351 -7.03536,12.81185 -2.80425,4.64835 -0.71767,4.16567 -0.37757,6.29045 0.3401,2.12479 1.67555,1.69054 2.74256,3.39131 1.06701,1.70078 -0.94417,5.60174 -0.94417,5.60174 0,0 7.65108,-9.85169 9.49626,-17.74906 1.84518,-7.89737 2.28802,-17.4923 0.44284,-23.6921 -1.84518,-6.1998 -3.46894,-9.74255 -5.09269,-12.17818 -1.62376,-2.43564 -3.79981,-5.00988 -3.79981,-5.00988 z"
       id="path4"
       sodipodi:nodetypes="cssscsssssssscsssc" /><path
       style="fill:#80c000;stroke:#000000;stroke-width:0.499999;stroke-linejoin:bevel;stroke-dasharray:none;fill-opacity:1"
       d="m 101.52603,116.12277 c 0,0 3.72219,-4.35944 3.99712,-5.04439 0.27493,-0.68496 0.61603,-1.69328 -0.92717,-4.03057 -1.5432,-2.33729 -3.10039,-4.4416 -4.640852,-4.4873 -1.540465,-0.0457 -2.138768,0.57308 -2.823724,0.29815 -0.684953,-0.27493 -2.054862,-0.82479 -1.297245,0.57683 0.75762,1.40162 2.284094,1.6803 3.479708,3.57585 1.195603,1.89556 0.172287,4.92054 0.516135,6.20379 0.343848,1.28326 1.696028,2.90764 1.696028,2.90764 z"
       id="path5" /><path
       style="fill:none;stroke:#000000;stroke-width:0.499999;stroke-linejoin:bevel;stroke-dasharray:none;marker-end:url(#Triangle)"
       d="M 97.612358,98.480761 113.79111,71.498106"
       id="path6"
       sodipodi:nodetypes="cc" /><path
       style="fill:none;stroke:#000000;stroke-width:0.499999;stroke-linejoin:bevel;stroke-dasharray:none;marker-end:url(#marker8)"
       id="path7"
       sodipodi:type="arc"
       sodipodi:cx="134.08629"
       sodipodi:cy="17.549099"
       sodipodi:rx="13.778039"
       sodipodi:ry="6.053987"
       sodipodi:start="3.1432302"
       sodipodi:end="2.6261165"
       sodipodi:open="true"
       sodipodi:arc-type="arc"
       d="m 120.30827,17.539185 a 13.778039,6.053987 0 0 1 12.02415,-5.994824 13.778039,6.053987 0 0 1 15.07968,4.466407 13.778039,6.053987 0 0 1 -8.13605,7.146429 13.778039,6.053987 0 0 1 -17.17746,-2.62379"
       transform="rotate(30)" /><path
       style="fill:none;stroke:#000000;stroke-width:0.5;stroke-linejoin:bevel;stroke-dasharray:none;marker-end:url(#marker8)"
       id="path24"
       sodipodi:type="arc"
       sodipodi:cx="74.856987"
       sodipodi:cy="59.143574"
       sodipodi:rx="50.156792"
       sodipodi:ry="13.692895"
       sodipodi:start="3.1432302"
       sodipodi:end="2.6261165"
       sodipodi:open="true"
       sodipodi:arc-type="arc"
       d="M 24.700263,59.121151 A 50.156792,13.692895 0 0 1 68.4723,45.562071 50.156792,13.692895 0 0 1 123.3675,55.664179 50.156792,13.692895 0 0 1 93.749492,71.827959 50.156792,13.692895 0 0 1 31.217664,65.893475" /><path
       style="fill:none;stroke:#000000;stroke-width:0.499999;stroke-linejoin:bevel;stroke-dasharray:none;stroke-dashoffset:0;marker-end:url(#marker27)"
       d="m 74.735422,58.661043 c 0,-34.236338 0,-34.236338 0,-34.236338"
       id="path26" /><text
       xml:space="preserve"
       style="font-size:2.80733px;line-height:normal;font-family:'DejaVu Sans Mono';-inkscape-font-specification:'DejaVu Sans Mono';text-decoration-color:#000000;writing-mode:lr-tb;direction:ltr;text-anchor:middle;fill:#000000;fill-opacity:1;stroke:none;stroke-width:0.499999;stroke-linejoin:bevel;stroke-dasharray:none;stroke-dashoffset:0;stroke-opacity:1"
       x="144.03955"
       y="69.364502"
       id="text28"><tspan
         sodipodi:role="line"
         style="fill:#000000;fill-opacity:1;stroke:none;stroke-width:0.5;stroke-opacity:1"
         x="144.03955"
         y="69.364502"
         id="tspan31">north_pole_in_global_coordinates</tspan></text><path
       style="fill:none;stroke:#000000;stroke-width:0.499999;stroke-linejoin:bevel;stroke-dasharray:none;stroke-dashoffset:0;marker-end:url(#marker30)"
       d="m 97.371189,99.152651 c 0,0 -3.318732,9.971859 -0.39947,19.659129 2.65098,8.79698 10.509901,14.50291 10.509901,14.50291"
       id="path29"
       sodipodi:nodetypes="csc" /><text
       xml:space="preserve"
       style="font-size:2.80733px;line-height:normal;font-family:'DejaVu Sans Mono';-inkscape-font-specification:'DejaVu Sans Mono';text-decoration-color:#000000;writing-mode:lr-tb;direction:ltr;text-anchor:middle;fill:#000000;fill-opacity:1;stroke:none;stroke-width:0.499999;stroke-linejoin:bevel;stroke-dasharray:none;stroke-dashoffset:0;stroke-opacity:1"
       x="128.96849"
       y="97.145981"
       id="text33"><tspan
         sodipodi:role="line"
         style="fill:#000000;fill-opacity:1;stroke:none;stroke-width:0.5;stroke-opacity:1"
         x="128.96849"
         y="97.145981"
         id="tspan33">north_pole_in_local_coordinates</tspan></text><text
       xml:space="preserve"
       style="font-size:2.80733px;line-height:normal;font-family:'DejaVu Sans Mono';-inkscape-font-specification:'DejaVu Sans Mono';text-decoration-color:#000000;writing-mode:lr-tb;direction:ltr;text-anchor:middle;fill:#000000;fill-opacity:1;stroke:none;stroke-width:0.499999;stroke-linejoin:bevel;stroke-dasharray:none;stroke-dashoffset:0;stroke-opacity:1"
       x="92.227058"
       y="137.22755"
       id="text34"><tspan
         sodipodi:role="line"
         style="fill:#000000;fill-opacity:1;stroke:none;stroke-width:0.5;stroke-opacity:1"
         x="92.227058"
         y="137.22755"
         id="tspan34">true polar wander</tspan></text><text
       xml:space="preserve"
       style="font-size:2.80733px;line-height:normal;font-family:'DejaVu Sans Mono';-inkscape-font-specification:'DejaVu Sans Mono';text-decoration-color:#000000;writing-mode:lr-tb;direction:ltr;text-anchor:middle;fill:#000000;fill-opacity:1;stroke:none;stroke-width:0.499999;stroke-linejoin:bevel;stroke-dasharray:none;stroke-dashoffset:0;stroke-opacity:1"
       x="123.74954"
       y="89.004425"
       id="text35"><tspan
         sodipodi:role="line"
         style="fill:#000000;fill-opacity:1;stroke:none;stroke-width:0.5;stroke-opacity:1"
         x="123.74954"
         y="89.004425"
         id="tspan35">spin</tspan></text><text
       xml:space="preserve"
       style="font-size:2.80733px;line-height:normal;font-family:'DejaVu Sans Mono';-inkscape-font-specification:'DejaVu Sans Mono';text-decoration-color:#000000;writing-mode:lr-tb;direction:ltr;text-anchor:middle;fill:#000000;fill-opacity:1;stroke:none;stroke-width:0.499999;stroke-linejoin:bevel;stroke-dasharray:none;stroke-dashoffset:0;stroke-opacity:1"
       x="109.13647"
       y="22.201813"
       id="text36"><tspan
         sodipodi:role="line"
         style="fill:#000000;fill-opacity:1;stroke:none;stroke-width:0.5;stroke-opacity:1"
         x="109.13647"
         y="22.201813"
         id="tspan36">precessional_north_pole_in_global_space</tspan></text><text
       xml:space="preserve"
       style="font-size:2.80733px;line-height:normal;font-family:'DejaVu Sans Mono';-inkscape-font-specification:'DejaVu Sans Mono';text-decoration-color:#000000;writing-mode:lr-tb;direction:ltr;text-anchor:middle;fill:#000000;fill-opacity:1;stroke:none;stroke-width:0.499999;stroke-linejoin:bevel;stroke-dasharray:none;stroke-dashoffset:0;stroke-opacity:1"
       x="19.456926"
       y="65.965042"
       id="text37"><tspan
         sodipodi:role="line"
         style="fill:#000000;fill-opacity:1;stroke:none;stroke-width:0.5;stroke-opacity:1"
         x="19.456926"
         y="65.965042"
         id="tspan37">precession</tspan></text><path
       style="fill:none;fill-opacity:1;stroke:#000000;stroke-width:0.5;stroke-linejoin:bevel;stroke-dasharray:none;stroke-dashoffset:0;stroke-opacity:1;marker-end:url(#marker38)"
       d="m 24.946819,59.340953 c 0,0 6.347415,-0.442841 3.247514,-1.476142 -3.0999,-1.033301 -6.019852,-1.434296 -4.576043,-2.583251 1.437737,-1.144123 8.783052,2.657057 6.716453,-1.033299 -2.066603,-3.690358 -2.01932,-7.432561 2.214214,-4.20701 3.0999,2.36183 5.937853,3.10925 8.2664,-1e-6 2.288374,-3.055609 3.173709,-5.166499 4.945079,-4.428428 1.771372,0.738071 3.0999,5.609344 7.233102,3.247514 4.133202,-2.361827 4.207009,-7.380714 7.749753,-4.428428 3.542742,2.952287 3.616551,6.568836 9.078278,2.730865 5.461731,-3.837972 6.642644,-5.904571 10.111582,-3.026093 3.624482,3.007545 5.756957,7.233101 10.037772,3.247516 4.280816,-3.985588 8.487828,-4.354622 10.332997,-2.435638 2.95292,3.07105 4.1332,7.233102 8.41403,6.052187 6.62722,-1.828198 9.81634,-4.649852 11.14487,-0.664264 1.32853,3.985586 -1.18091,6.495029 3.0999,7.2331 4.28082,0.738074 7.2331,2.361829 3.98559,4.576045 -3.24752,2.214213 -7.82356,-1.033301 -10.77585,1.623756 -2.95228,2.65706 -4.57604,9.742546 -8.2664,8.266404 -3.69036,-1.476145 -9.447314,-7.52833 -11.513913,-4.133202 -2.066602,3.395128 -5.75696,10.62823 -9.447316,8.414014 -3.690358,-2.214213 -9.152088,-9.447315 -11.809145,-6.642642 -2.657059,2.804671 -8.118787,9.742543 -11.809145,6.642642 -3.690358,-3.0999 -7.52833,-10.775844 -11.513918,-8.414014 -3.985585,2.361829 -7.971173,8.856858 -10.185386,6.199801 -2.214216,-2.657057 1.136578,-10.332554 -2.509444,-8.561631 -2.583252,1.254721 -4.354623,5.018888 -4.354623,5.018888"
       id="path37"
       sodipodi:nodetypes="csssssssssssssssssssssssssc" /><text
       xml:space="preserve"
       style="font-size:2.80733px;line-height:normal;font-family:'DejaVu Sans Mono';-inkscape-font-specification:'DejaVu Sans Mono';text-decoration-color:#000000;writing-mode:lr-tb;direction:ltr;text-anchor:middle;fill:#000000;fill-opacity:1;stroke:none;stroke-width:0.499999;stroke-linejoin:bevel;stroke-dasharray:none;stroke-dashoffset:0;stroke-opacity:1"
       x="60.567513"
       y="66.186462"
       id="text38"><tspan
         sodipodi:role="line"
         style="fill:#000000;fill-opacity:1;stroke:none;stroke-width:0.5;stroke-opacity:1"
         x="60.567513"
         y="66.186462"
         id="tspan38">nutation</tspan></text><path
       style="fill:none;stroke:#000000;stroke-width:0.499999;stroke-linejoin:bevel;stroke-dasharray:none;marker-end:url(#Triangle)"
       d="M 194.8797,139.23745 211.05845,112.2548"
       id="path39"
       sodipodi:nodetypes="cc" /><path
       style="fill:none;stroke:#000000;stroke-width:0.499999;stroke-linejoin:bevel;stroke-dasharray:none;stroke-dashoffset:0;marker-end:url(#marker27)"
       d="m 194.58776,139.2736 c 0,-34.23633 0,-34.23633 0,-34.23633"
       id="path40" /><path
       style="fill:none;stroke:#000000;stroke-width:0.499999;stroke-linejoin:bevel;stroke-dasharray:none;marker-end:url(#Triangle)"
       d="m 194.8797,139.23745 -12.1632,14.34936"
       id="path41"
       sodipodi:nodetypes="cc" /><text
       xml:space="preserve"
       style="font-size:2.80733px;line-height:normal;font-family:'DejaVu Sans Mono';-inkscape-font-specification:'DejaVu Sans Mono';text-decoration-color:#000000;writing-mode:lr-tb;direction:ltr;text-anchor:middle;fill:#000000;fill-opacity:1;stroke:none;stroke-width:0.499999;stroke-linejoin:bevel;stroke-dasharray:none;stroke-dashoffset:0;stroke-opacity:1"
       x="225.01166"
       y="112.2001"
       id="text41"><tspan
         sodipodi:role="line"
         style="fill:#000000;fill-opacity:1;stroke:none;stroke-width:0.5;stroke-opacity:1"
         x="225.01166"
         y="112.2001"
         id="tspan41">S = spin axis</tspan></text><text
       xml:space="preserve"
       style="font-size:2.80733px;line-height:normal;font-family:'DejaVu Sans Mono';-inkscape-font-specification:'DejaVu Sans Mono';text-decoration-color:#000000;writing-mode:lr-tb;direction:ltr;text-anchor:middle;fill:#000000;fill-opacity:1;stroke:none;stroke-width:0.499999;stroke-linejoin:bevel;stroke-dasharray:none;stroke-dashoffset:0;stroke-opacity:1"
       x="211.7836"
       y="102.05923"
       id="text42"><tspan
         sodipodi:role="line"
         style="fill:#000000;fill-opacity:1;stroke:none;stroke-width:0.5;stroke-opacity:1"
         x="211.7836"
         y="102.05923"
         id="tspan42">P = precession axis</tspan></text><text
       xml:space="preserve"
       style="font-size:2.80733px;line-height:normal;font-family:'DejaVu Sans Mono';-inkscape-font-specification:'DejaVu Sans Mono';text-decoration-color:#000000;writing-mode:lr-tb;direction:ltr;text-anchor:middle;fill:#000000;fill-opacity:1;stroke:none;stroke-width:0.499999;stroke-linejoin:bevel;stroke-dasharray:none;stroke-dashoffset:0;stroke-opacity:1"
       x="162.30092"
       y="157.05205"
       id="text43"><tspan
         sodipodi:role="line"
         style="fill:#000000;fill-opacity:1;stroke:none;stroke-width:0.5;stroke-opacity:1"
         x="162.30092"
         y="157.05205"
         id="tspan43">nutation axis = ⟨S×P⟩</tspan></text><path
       style="fill:none;fill-opacity:1;stroke:#000000;stroke-width:0.3;stroke-linejoin:bevel;stroke-dasharray:none;stroke-dashoffset:0;stroke-opacity:1"
       d="m 192.47502,142.05993 v -3.65327 l 2.08759,-2.40071"
       id="path43" /><path
       style="fill:none;fill-opacity:1;stroke:#000000;stroke-width:0.3;stroke-linejoin:bevel;stroke-dasharray:none;stroke-dashoffset:0;stroke-opacity:1"
       d="m 192.63668,141.78355 0.44284,-1.43214 2.78382,-3.22667 -0.4958,1.18987"
       id="path44"
       sodipodi:nodetypes="cccc" /></g></svg>
